<?xml version="1.0" encoding="UTF-8"?>
<svg width="607px" height="86px" viewBox="0 0 607 86" version="1.1" xmlns="http://www.w3.org/2000/svg" xmlns:xlink="http://www.w3.org/1999/xlink">
    <!-- Generator: Sketch 64 (93537) - https://sketch.com -->
    <title>Vakfi_Horizontal_Black</title>
    <desc>Created with Sketch.</desc>
    <g id="Vakfi_Horizontal_Black" stroke="none" stroke-width="1" fill="none" fill-rule="evenodd">
        <path d="M53.96,17.519 C51.132,21.621 48.525,25.439 46.497,30.011 C45.539,29.812 44.592,29.555 43.522,29.494 C40.906,29.328 38.708,29.842 37.701,30.102 C35.632,22.861 34.639,20.581 33.097,16.575 C31.437,12.29 27.639,6.119 25.815,3.133 C27.199,3.149 28.761,3.419 30.131,3.93 C32.044,4.648 33.667,5.524 35.505,6.4 C38.552,4.464 42.235,2.62 45.415,0.96 C46.2,3.653 46.563,6.511 46.793,9.322 C52.3,8.328 55.782,9.917 58.567,11.387 C57.042,13.325 55.479,15.309 53.96,17.519" id="Fill-1" fill="#1A1919"></path>
        <path d="M52.597,36.715 C52.32,35.61 51.875,34.658 51.299,33.589 C50.747,32.574 50.154,31.923 49.069,30.672 C51.138,27.491 53.083,24.173 55.701,21.41 C57.088,20.026 62.983,13.532 65.38,12.29 C66.626,14.316 66.626,16.388 67.173,18.508 C69.526,18.508 72.147,18.74 74.499,19.384 C74.084,21.086 73.028,23.391 72.056,25.182 C73.304,25.97 74.999,27.171 76.115,28.547 C77.471,30.236 78.561,31.551 79.787,32.923 C77.237,32.946 64.598,31.583 52.597,36.715" id="Fill-2" fill="#1A1919"></path>
        <path d="M80.635,51.761 C78.38,52.865 76.001,53.706 73.35,54.397 C74.521,58.295 75.609,62.3 75.865,66.637 C70.634,63.169 68.004,61.23 64.238,58.2 C60.69,55.346 54.412,49.808 52.755,47.318 C53.719,45.071 54.21,42.48 53.857,39.151 C64.474,36.907 73.52,36.642 83.881,38.157 C81.171,41.758 79.174,43.485 75.629,46.156 C76.837,47.186 80.08,50.933 80.635,51.761" id="Fill-3" fill="#1A1919"></path>
        <path d="M74.893,70.083 C69.558,70.837 65.144,69.413 63.49,69.149 C62.083,71.934 60.99,74.278 59.436,77.046 C57.287,75.907 55.445,74.768 53.693,73.649 C50.925,76.58 49.339,78.805 44.592,82.202 C44.474,72.691 45.107,63.969 43.438,53.913 C46.485,53.36 49.109,52.117 51.736,49.882 C55.603,54.442 59.151,58.024 63.757,61.955 C66.692,64.467 68.868,65.5 74.893,70.083" id="Fill-4" fill="#1A1919"></path>
        <path d="M41.13,67.275 C41.067,73.346 40.411,79.921 39.865,86 C37.948,83.946 36.173,81.506 34.519,79.146 C30.37,81.362 25.098,83.299 25.098,83.299 C24.877,79.872 25.032,76.264 25.309,72.943 C19.818,72.017 16.116,70.739 11.869,69.103 C14.113,67.931 18.996,65.163 23.737,61.244 C27.699,57.982 31.414,53.882 33.431,51.479 C36.334,53.078 37.689,53.683 40.777,54.19 C40.915,58.614 41.171,63.365 41.13,67.275" id="Fill-5" fill="#1A1919"></path>
        <path d="M28.968,45.528 C29.469,47.871 29.938,48.599 30.804,50.135 C26.805,55.09 19.827,60.317 12.795,64.565 C11.794,61.342 11.975,57.636 11.975,54.327 C7.99,54.045 3.614,51.95 0,50.581 C2.388,47.929 5.383,45.822 8.223,43.728 C5.961,40.388 3.444,37.033 2.23,32.515 C6.379,33.691 11.181,36.159 17.882,37.854 C21.246,38.695 25.058,39.053 28.375,39.336 C28.427,41.552 28.361,42.722 28.968,45.528" id="Fill-6" fill="#1A1919"></path>
        <path d="M31.544,33.343 C30.496,34.64 29.707,35.837 29.169,36.727 C15.27,34.795 9.429,32.246 2.187,28.128 C4.561,26.317 8.375,24.49 10.154,24.074 C9.596,21.332 9.503,18.681 9.503,16.051 C13.192,16.559 18.092,18.367 19.358,18.749 C19.977,14.316 21.309,9.851 23.363,6.029 C28.485,13.466 31.966,21.788 34.487,30.417 C33.906,30.925 32.407,32.269 31.544,33.343" id="Fill-7" fill="#1A1919"></path>
        <path d="M112.853,52.63 C111.609,52.63 110.367,52.377 109.218,51.928 C108.488,51.64 107.245,51.036 106.511,51.036 C105.809,51.036 105.714,51.896 105.682,52.44 L105.17,52.44 L105.17,44.631 L105.682,44.631 C105.809,46.159 105.904,47.339 106.701,48.711 C107.976,50.909 110.461,52.12 112.95,52.12 C115.882,52.12 118.4,50.398 118.4,47.275 C118.4,46.096 117.985,45.172 117.062,44.439 C114.383,42.366 109.155,43.451 106.831,41.09 C105.777,40.007 105.331,38.35 105.331,36.884 C105.331,33.122 107.944,30.509 111.705,30.509 C113.681,30.509 114.542,30.987 116.233,31.975 C116.55,32.167 116.932,32.453 117.315,32.453 C117.954,32.453 118.049,31.688 118.081,31.21 L118.59,31.21 L118.59,37.585 L118.081,37.585 C117.824,33.761 115.468,31.019 111.515,31.019 C108.804,31.019 106.637,32.612 106.637,35.449 C106.637,42.589 119.801,36.215 119.801,45.776 C119.801,49.919 116.964,52.63 112.853,52.63" id="Fill-8" fill="#1A1919"></path>
        <path d="M144.123,34.11 L144.123,44.982 C144.123,47.275 143.867,49.441 142.02,51.004 C140.394,52.405 138.193,52.661 136.121,52.661 C133.54,52.661 130.32,52.342 128.537,50.271 C127.357,48.9 127.483,47.275 127.483,45.586 L127.483,31.496 L124.425,31.496 L124.425,30.955 L133.955,30.955 L133.955,31.496 L130.64,31.496 L130.64,45.744 C130.64,47.753 130.51,49.441 132.234,50.748 C133.572,51.77 135.197,52.089 136.854,52.089 C139.277,52.089 141.605,51.356 142.848,49.125 C143.579,47.848 143.579,46.51 143.579,45.074 L143.579,34.11 C143.579,31.019 142.592,31.496 139.881,31.496 L139.881,30.955 L147.181,30.955 L147.181,31.496 C144.664,31.496 144.123,31.241 144.123,34.11" id="Fill-9" fill="#1A1919"></path>
        <path d="M171.325,34.175 L171.325,52.377 L171.132,52.377 L155.451,32.453 L155.451,48.613 C155.451,51.864 155.735,51.675 158.765,51.675 L158.765,52.216 L151.848,52.216 L151.848,51.675 C153.856,51.675 154.938,52.025 154.938,49.632 L154.938,31.879 L154.366,31.496 L151.848,31.496 L151.848,30.955 L158.446,30.955 L170.844,46.64 L170.844,34.142 C170.844,31.115 170.559,31.496 167.593,31.496 L167.593,30.955 L174.415,30.955 L174.415,31.496 C171.451,31.496 171.325,31.241 171.325,34.175" id="Fill-10" fill="#1A1919"></path>
        <path d="M186.396,35.29 L183.081,44.723 L189.932,44.723 L186.396,35.29 Z M189.422,52.216 L189.422,51.675 L192.579,51.675 L190.156,45.267 L182.888,45.267 L181.421,49.316 C181.294,49.632 181.041,50.398 181.041,50.748 C181.041,51.928 183.461,51.675 184.163,51.675 L184.163,52.216 L177.47,52.216 L177.47,51.675 C179.957,51.675 179.925,51.675 180.817,49.252 L187.541,30.636 L187.955,30.636 L195.989,51.675 L198.667,51.675 L198.667,52.216 L189.422,52.216 L189.422,52.216 Z" id="Fill-11" fill="#1A1919"></path>
        <path d="M230.507,33.983 L223.397,52.98 L215.62,31.496 L212.815,31.496 L212.815,30.955 L222.186,30.955 L222.186,31.496 L219.096,31.496 L224.833,47.784 L229.773,34.524 C229.932,34.079 230.314,33.027 230.314,32.549 C230.314,31.752 229.678,31.496 228.977,31.496 L227.414,31.496 L227.414,30.955 L234.395,30.955 L234.395,31.496 C231.621,31.496 231.494,31.305 230.507,33.983" id="Fill-12" fill="#1A1919"></path>
        <path d="M238.785,52.216 L238.785,51.675 L241.847,51.675 L241.847,31.496 L238.785,31.496 L238.785,30.955 L256.285,30.955 L256.794,36.15 L256.285,36.15 C256.032,34.556 255.839,33.187 254.339,32.358 C252.843,31.529 250.294,31.496 248.634,31.496 L244.968,31.496 L244.968,41.155 L246.246,41.155 C248.254,41.155 251.155,40.964 251.155,38.318 L251.155,37.33 L251.695,37.33 L251.695,45.33 L251.155,45.33 L251.155,44.245 C251.155,42.589 250.421,42.047 248.827,41.793 C247.966,41.665 247.075,41.633 246.18,41.633 L244.968,41.633 L244.968,51.675 L248.985,51.675 C252.173,51.675 257.37,51.64 257.37,47.181 L257.37,45.966 L257.911,45.966 L257.911,52.216 L238.785,52.216" id="Fill-13" fill="#1A1919"></path>
        <path d="M278.374,28.213 C277.545,28.213 276.843,27.513 276.843,26.684 C276.843,25.824 277.513,25.153 278.374,25.153 C279.203,25.153 279.905,25.855 279.905,26.684 C279.905,27.513 279.203,28.213 278.374,28.213 Z M273.721,52.216 L273.721,51.675 L276.811,51.675 L276.811,31.496 L273.721,31.496 L273.721,30.955 L283.092,30.955 L283.092,31.496 L280,31.496 L280,51.675 L283.092,51.675 L283.092,52.216 L273.721,52.216 L273.721,52.216 Z" id="Fill-14" fill="#1A1919"></path>
        <path d="M308.306,34.175 L308.306,52.377 L308.113,52.377 L292.432,32.453 L292.432,48.613 C292.432,51.864 292.717,51.675 295.747,51.675 L295.747,52.216 L288.83,52.216 L288.83,51.675 C290.838,51.675 291.919,52.025 291.919,49.632 L291.919,31.879 L291.347,31.496 L288.83,31.496 L288.83,30.955 L295.427,30.955 L307.826,46.64 L307.826,34.142 C307.826,31.115 307.541,31.496 304.574,31.496 L304.574,30.955 L311.396,30.955 L311.396,31.496 C308.432,31.496 308.306,31.241 308.306,34.175" id="Fill-15" fill="#1A1919"></path>
        <path d="M323.375,35.29 L320.059,44.723 L326.911,44.723 L323.375,35.29 Z M326.401,52.216 L326.401,51.675 L329.557,51.675 L327.135,45.267 L319.867,45.267 L318.399,49.316 C318.273,49.632 318.02,50.398 318.02,50.748 C318.02,51.928 320.439,51.675 321.141,51.675 L321.141,52.216 L314.449,52.216 L314.449,51.675 C316.935,51.675 316.903,51.675 317.795,49.252 L324.519,30.636 L324.934,30.636 L332.967,51.675 L335.646,51.675 L335.646,52.216 L326.401,52.216 L326.401,52.216 Z" id="Fill-16" fill="#1A1919"></path>
        <path d="M359.835,34.175 L359.835,52.377 L359.642,52.377 L343.961,32.453 L343.961,48.613 C343.961,51.864 344.246,51.675 347.276,51.675 L347.276,52.216 L340.359,52.216 L340.359,51.675 C342.367,51.675 343.449,52.025 343.449,49.632 L343.449,31.879 L342.876,31.496 L340.359,31.496 L340.359,30.955 L346.957,30.955 L359.354,46.64 L359.354,34.142 C359.354,31.115 359.07,31.496 356.103,31.496 L356.103,30.955 L362.925,30.955 L362.925,31.496 C359.961,31.496 359.835,31.241 359.835,34.175" id="Fill-17" fill="#1A1919"></path>
        <path d="M389.891,52.216 L389.891,51.675 L392.889,51.675 L384.568,41.633 L384.185,41.984 L384.185,51.675 L387.566,51.675 L387.566,52.216 L378.034,52.216 L378.034,51.675 L381.095,51.675 L381.095,31.496 L378.034,31.496 L378.034,30.955 L387.405,30.955 L387.405,31.496 L384.185,31.496 L384.185,41.282 L392.124,34.142 C392.506,33.792 393.75,32.676 393.75,32.102 C393.75,31.401 392.665,31.496 392.219,31.496 L390.625,31.496 L390.625,30.955 L399.708,30.955 L399.708,31.496 L398.019,31.496 C397.064,31.496 396.523,31.624 395.726,32.135 C394.227,33.059 392.826,34.207 391.517,35.385 L386.927,39.561 L397.191,51.675 L400.252,51.675 L400.252,52.216 L389.891,52.216" id="Fill-18" fill="#1A1919"></path>
        <polyline id="Fill-19" fill="#1A1919" points="404.868 52.216 404.868 51.675 407.958 51.675 407.958 31.496 404.868 31.496 404.868 30.955 414.239 30.955 414.239 31.496 411.145 31.496 411.145 51.675 414.239 51.675 414.239 52.216 404.868 52.216"></polyline>
        <path d="M432.809,33.218 C431.408,31.338 428.729,31.496 426.625,31.496 L425.477,31.496 L425.477,40.9 L426.754,40.9 C428.763,40.9 431.502,40.741 432.843,38.987 C433.448,38.19 433.767,37.235 433.767,36.247 C433.767,35.227 433.416,34.047 432.809,33.218 Z M437.24,52.44 C434.276,52.44 433.416,51.004 433.127,48.231 L432.809,45.235 C432.619,43.543 432.11,42.335 430.389,41.793 C428.827,41.315 427.071,41.378 425.477,41.378 L425.477,51.675 L428.794,51.675 L428.794,52.216 L419.293,52.216 L419.293,51.675 L422.355,51.675 L422.355,31.496 L419.293,31.496 L419.293,30.955 L430.291,30.955 C432.492,30.955 434.817,31.273 436.158,33.218 C436.73,34.047 437.049,35.003 437.049,36.024 C437.049,37.712 436.189,39.179 434.722,40.007 C433.448,40.741 432.078,40.964 430.642,41.124 C432.363,41.347 434.245,41.665 435.361,43.13 C436.411,44.533 436.508,47.753 436.667,49.378 C436.762,50.398 436.923,51.833 438.261,51.833 C438.739,51.833 439.089,51.703 439.536,51.548 L439.757,52.025 C438.928,52.311 438.131,52.44 437.24,52.44 L437.24,52.44 Z" id="Fill-20" fill="#1A1919"></path>
        <path d="M453.461,35.29 L450.147,44.723 L456.998,44.723 L453.461,35.29 Z M456.489,52.216 L456.489,51.675 L459.645,51.675 L457.222,45.267 L449.955,45.267 L448.487,49.316 C448.36,49.632 448.107,50.398 448.107,50.748 C448.107,51.928 450.527,51.675 451.229,51.675 L451.229,52.216 L444.537,52.216 L444.537,51.675 C447.022,51.675 446.991,51.675 447.882,49.252 L454.607,30.636 L455.021,30.636 L463.054,51.675 L465.733,51.675 L465.733,52.216 L456.489,52.216 L456.489,52.216 Z" id="Fill-21" fill="#1A1919"></path>
        <path d="M485.656,51.864 C485.592,51.226 485.276,50.368 484.51,50.368 C483.966,50.368 483.52,50.748 483.106,51.067 C481.642,52.12 480.588,52.469 478.773,52.566 L477.243,55.276 C477.846,55.021 478.325,54.892 478.963,54.892 C480.143,54.892 481.481,55.467 481.481,56.836 C481.481,58.493 479.377,59.101 478.04,59.101 C477.018,59.101 476,58.814 475.076,58.399 L475.297,57.953 C475.967,58.304 476.828,58.465 477.562,58.465 C478.517,58.465 479.377,57.89 479.377,56.871 C479.377,55.976 478.675,55.498 477.846,55.498 C477.369,55.498 477.116,55.628 476.699,55.881 L476.414,55.656 L478.198,52.566 C472.524,52.342 468.7,47.468 468.7,41.984 C468.7,36.406 472.524,30.636 478.548,30.636 C480.301,30.636 481.642,31.115 483.106,32.039 C483.552,32.326 484.127,32.772 484.668,32.772 C485.371,32.772 485.592,32.07 485.656,31.496 L486.167,31.496 C486.136,32.358 486.07,33.218 486.07,34.047 C486.07,35.353 486.2,36.629 486.167,37.936 L485.656,37.936 C485.529,36.278 485.209,35.258 484.191,33.95 C482.755,32.135 480.908,31.115 478.581,31.115 C475.936,31.115 474.279,32.484 473.352,34.907 C472.492,37.139 472.239,39.656 472.239,42.016 C472.239,46.225 473.099,52.12 478.517,52.12 C481.449,52.12 484.286,50.112 485.241,47.339 C485.561,46.38 485.624,45.649 485.656,44.631 L486.167,44.631 C486.104,45.966 486.07,47.307 486.07,48.648 C486.07,49.73 486.136,50.782 486.167,51.864 L485.656,51.864" id="Fill-22" fill="#1A1919"></path>
        <path d="M519.667,33.983 L512.558,52.98 L504.781,31.496 L501.975,31.496 L501.975,30.955 L511.346,30.955 L511.346,31.496 L508.256,31.496 L513.994,47.784 L518.934,34.524 C519.092,34.079 519.475,33.027 519.475,32.549 C519.475,31.752 518.839,31.496 518.137,31.496 L516.575,31.496 L516.575,30.955 L523.555,30.955 L523.555,31.496 C520.782,31.496 520.655,31.305 519.667,33.983" id="Fill-23" fill="#1A1919"></path>
        <path d="M531.813,35.29 L528.499,44.723 L535.349,44.723 L531.813,35.29 Z M534.839,52.216 L534.839,51.675 L537.997,51.675 L535.574,45.267 L528.305,45.267 L526.838,49.316 C526.711,49.632 526.458,50.398 526.458,50.748 C526.458,51.928 528.877,51.675 529.58,51.675 L529.58,52.216 L522.887,52.216 L522.887,51.675 C525.374,51.675 525.342,51.675 526.234,49.252 L532.958,30.636 L533.373,30.636 L541.406,51.675 L544.084,51.675 L544.084,52.216 L534.839,52.216 L534.839,52.216 Z" id="Fill-24" fill="#1A1919"></path>
        <path d="M560.767,52.216 L560.767,51.675 L563.765,51.675 L555.444,41.633 L555.061,41.984 L555.061,51.675 L558.442,51.675 L558.442,52.216 L548.91,52.216 L548.91,51.675 L551.971,51.675 L551.971,31.496 L548.91,31.496 L548.91,30.955 L558.281,30.955 L558.281,31.496 L555.061,31.496 L555.061,41.282 L563,34.142 C563.382,33.792 564.625,32.676 564.625,32.102 C564.625,31.401 563.541,31.496 563.094,31.496 L561.5,31.496 L561.5,30.955 L570.584,30.955 L570.584,31.496 L568.895,31.496 C567.94,31.496 567.399,31.624 566.602,32.135 C565.103,33.059 563.702,34.207 562.392,35.385 L557.803,39.561 L568.067,51.675 L571.127,51.675 L571.127,52.216 L560.767,52.216" id="Fill-25" fill="#1A1919"></path>
        <path d="M593.003,36.533 C593.003,35.29 592.716,33.95 591.919,32.963 C590.996,31.816 589.05,31.496 587.681,31.496 L581.877,31.496 L581.877,41.09 L583.186,41.09 C584.875,41.09 587.807,41.218 588.317,39.115 C588.478,38.478 588.542,37.776 588.542,37.107 L589.083,37.107 L589.083,45.425 L588.542,45.425 C588.542,44.47 588.478,42.941 587.583,42.335 C586.277,41.441 583.376,41.633 581.877,41.633 L581.877,51.675 L585.164,51.675 L585.164,52.216 L575.694,52.216 L575.694,51.675 L578.755,51.675 L578.755,31.496 L575.694,31.496 L575.694,30.955 L593.036,30.955 L593.577,36.533 L593.003,36.533" id="Fill-26" fill="#1A1919"></path>
        <polyline id="Fill-27" fill="#1A1919" points="597.561 52.216 597.561 51.675 600.652 51.675 600.652 31.496 597.561 31.496 597.561 30.955 606.933 30.955 606.933 31.496 603.839 31.496 603.839 51.675 606.933 51.675 606.933 52.216 597.561 52.216"></polyline>
    </g>
</svg>