<?xml version="1.0" encoding="utf-8"?>
<!-- Generator: Adobe Illustrator 27.1.1, SVG Export Plug-In . SVG Version: 6.00 Build 0)  -->
<svg version="1.1" id="Layer_1" xmlns="http://www.w3.org/2000/svg" xmlns:xlink="http://www.w3.org/1999/xlink" x="0px" y="0px"
	 viewBox="0 0 558.99 91.43" style="enable-background:new 0 0 558.99 91.43;" xml:space="preserve">
<style type="text/css">
	.st0{fill:#EE3224;}
</style>
<g>
	<path class="st0" d="M245.5,19.56c-2.83,4.1-5.43,7.92-7.46,12.49c-0.96-0.2-1.9-0.46-2.97-0.52c-2.62-0.17-4.81,0.35-5.82,0.61
		c-2.07-7.24-3.06-9.52-4.6-13.53c-1.66-4.29-5.46-10.46-7.28-13.44c1.39,0.02,2.95,0.29,4.32,0.8c1.92,0.72,3.54,1.59,5.38,2.47
		c3.05-1.94,6.73-3.78,9.91-5.44c0.79,2.69,1.15,5.55,1.38,8.36c5.51-0.99,8.99,0.6,11.77,2.07
		C248.58,15.36,247.02,17.35,245.5,19.56z"/>
	<path class="st0" d="M244.13,38.76c-0.28-1.1-0.72-2.06-1.3-3.13c-0.55-1.02-1.14-1.67-2.23-2.92c2.07-3.18,4.01-6.5,6.63-9.26
		c1.38-1.38,7.28-7.88,9.68-9.12c1.25,2.03,1.25,4.1,1.8,6.22c2.35,0,4.97,0.23,7.32,0.88c-0.41,1.7-1.47,4.01-2.44,5.8
		c1.25,0.79,2.94,1.99,4.06,3.37c1.36,1.69,2.45,3,3.67,4.38C268.78,34.99,256.14,33.62,244.13,38.76z"/>
	<path class="st0" d="M272.17,53.8c-2.26,1.11-4.64,1.94-7.29,2.63c1.17,3.9,2.26,7.91,2.52,12.24c-5.23-3.47-7.86-5.41-11.63-8.44
		c-3.55-2.85-9.82-8.39-11.48-10.88c0.96-2.25,1.46-4.84,1.1-8.17c10.62-2.24,19.66-2.51,30.02-0.99c-2.71,3.6-4.71,5.33-8.25,8
		C268.37,49.22,271.62,52.97,272.17,53.8z"/>
	<path class="st0" d="M266.43,72.12c-5.34,0.75-9.75-0.67-11.4-0.93c-1.41,2.79-2.5,5.13-4.05,7.9c-2.15-1.14-3.99-2.28-5.74-3.4
		c-2.77,2.93-4.35,5.15-9.1,8.55c-0.12-9.52,0.51-18.24-1.15-28.29c3.05-0.55,5.67-1.79,8.3-4.03c3.87,4.56,7.42,8.14,12.02,12.07
		C258.23,66.51,260.4,67.54,266.43,72.12z"/>
	<path class="st0" d="M232.67,69.31c-0.06,6.07-0.72,12.65-1.27,18.73c-1.92-2.05-3.69-4.49-5.34-6.85
		c-4.15,2.22-9.42,4.15-9.42,4.15c-0.22-3.43-0.07-7.04,0.21-10.36c-5.49-0.93-9.19-2.2-13.44-3.84c2.24-1.17,7.13-3.94,11.87-7.86
		c3.96-3.26,7.68-7.36,9.69-9.76c2.91,1.6,4.26,2.2,7.35,2.71C232.45,60.65,232.71,65.4,232.67,69.31z"/>
	<path class="st0" d="M220.5,47.57c0.5,2.34,0.97,3.07,1.84,4.61c-4,4.95-10.98,10.18-18.01,14.43c-1-3.22-0.82-6.93-0.82-10.24
		c-3.99-0.28-8.36-2.37-11.98-3.74c2.39-2.65,5.38-4.76,8.22-6.85c-2.26-3.34-4.78-6.69-5.99-11.21c4.15,1.18,8.95,3.64,15.65,5.34
		c3.36,0.84,7.18,1.2,10.49,1.48C219.96,43.59,219.9,44.76,220.5,47.57z"/>
	<path class="st0" d="M223.08,35.38c-1.05,1.3-1.84,2.49-2.37,3.38c-13.9-1.93-19.74-4.48-26.98-8.6c2.37-1.81,6.19-3.64,7.97-4.05
		c-0.56-2.74-0.65-5.39-0.65-8.02c3.69,0.51,8.59,2.32,9.86,2.7c0.62-4.43,1.95-8.9,4-12.72c5.12,7.44,8.6,15.76,11.12,24.39
		C225.44,32.96,223.94,34.31,223.08,35.38z"/>
</g>
<g>
	<path d="M20.84,47.77c-2.69,0-3.98-0.12-6.49-1.05v17.26h6.03v0.99H3v-0.99h5.62V26.94H3v-1H19.2c3.63,0,6.9,0.18,10.24,1.64
		c4.04,1.75,6.61,4.56,6.61,9.13C36.05,44.66,27.57,47.77,20.84,47.77z M16.75,26.82c-0.82,0-1.58,0.06-2.4,0.12v18.6
		c1.99,1.05,2.92,1.23,5.15,1.23c5.97,0,10.47-2.98,10.47-9.36C29.97,28.75,24.29,26.82,16.75,26.82z"/>
	<path d="M46.46,64.96v-0.99h5.62V26.94h-5.62v-1h32.12l0.94,9.54h-0.94c-0.47-2.92-0.82-5.44-3.57-6.96
		c-2.75-1.52-7.43-1.58-10.47-1.58h-6.73v17.73h2.34c3.69,0,9.01-0.35,9.01-5.21v-1.81h0.99v14.68h-0.99v-1.99
		c0-3.04-1.35-4.04-4.27-4.5c-1.58-0.23-3.22-0.29-4.86-0.29h-2.22v18.43h7.37c5.85,0,15.39-0.06,15.39-8.25V53.5h0.99v11.47H46.46z
		"/>
	<path d="M125.2,65.37c-5.44,0-7.02-2.63-7.55-7.72l-0.58-5.5c-0.35-3.1-1.29-5.32-4.45-6.32c-2.87-0.88-6.08-0.76-9.01-0.76v18.9
		h6.08v0.99H92.26v-0.99h5.62V26.94h-5.62v-1h20.18c4.04,0,8.31,0.59,10.76,4.15c1.05,1.52,1.64,3.28,1.64,5.15
		c0,3.1-1.58,5.79-4.27,7.31c-2.34,1.35-4.86,1.75-7.49,2.05c3.16,0.41,6.61,1,8.66,3.69c1.93,2.57,2.11,8.48,2.4,11.47
		c0.18,1.87,0.47,4.5,2.93,4.5c0.88,0,1.52-0.23,2.34-0.53l0.41,0.88C128.3,65.14,126.84,65.37,125.2,65.37z M117.07,30.1
		c-2.57-3.45-7.49-3.16-11.35-3.16h-2.11V44.2h2.34c3.69,0,8.72-0.29,11.17-3.51c1.11-1.46,1.7-3.22,1.7-5.03
		C118.82,33.78,118.18,31.62,117.07,30.1z"/>
	<path d="M158.02,64.96v-0.99h5.79l-4.45-11.76h-13.34l-2.69,7.43c-0.23,0.58-0.7,1.99-0.7,2.63c0,2.16,4.45,1.7,5.73,1.7v0.99
		h-12.29v-0.99c4.56,0,4.5,0,6.14-4.45l12.34-34.17h0.76l14.74,38.61h4.91v0.99H158.02z M152.46,33.9l-6.08,17.32h12.58L152.46,33.9
		z"/>
</g>
<g>
	<path d="M324.79,64.96v-0.99h5.62V28.93L315.9,64.2l-14.68-34.05v27.55c0,0.88,0.06,1.76,0.12,2.63c0.17,3.51,1.05,3.63,4.39,3.63
		h1.7v0.99H294.6v-0.99c3.39,0,5.67,0.58,5.67-3.63V27.99l-0.53-1.05h-4.91v-1h10.88l12.75,29.31l11.93-29.31h11.35v1h-5.67v37.03
		h5.67v0.99H324.79z"/>
	<path d="M389.78,31.74v19.95c0,4.21-0.47,8.19-3.86,11.06c-2.98,2.57-7.02,3.04-10.82,3.04c-4.74,0-10.65-0.59-13.92-4.39
		c-2.17-2.52-1.93-5.5-1.93-8.6V26.94h-5.62v-1h17.49v1h-6.08v26.15c0,3.69-0.23,6.79,2.93,9.19c2.46,1.87,5.44,2.46,8.48,2.46
		c4.45,0,8.72-1.35,11-5.44c1.35-2.34,1.35-4.8,1.35-7.43V31.74c0-5.67-1.81-4.8-6.79-4.8v-1h13.4v1
		C390.77,26.94,389.78,26.47,389.78,31.74z M370.35,20.91c-1.52,0-2.81-1.29-2.81-2.81s1.29-2.81,2.81-2.81
		c1.58,0,2.81,1.23,2.81,2.81C373.16,19.62,371.88,20.91,370.35,20.91z M381.35,20.91c-1.52,0-2.75-1.29-2.75-2.81
		s1.23-2.81,2.75-2.81c1.58,0,2.81,1.23,2.81,2.81C384.16,19.62,382.87,20.91,381.35,20.91z"/>
	<path d="M405.74,64.96l25.21-38.03h-7.43c-3.04,0-8.25,0.17-11.06,1.52c-2.34,1.11-3.45,3.45-3.45,5.97v2.28h-0.99V25.94h30.13
		l-25.21,38.03h7.43c2.52,0,5.09-0.12,7.61-0.41c4.45-0.59,9.54-1.81,9.54-7.26v-2.63h0.94v11.29H405.74z"/>
	<path d="M450.79,64.96v-0.99h5.62V26.94h-5.62v-1h32.12l0.94,9.54h-0.94c-0.47-2.92-0.82-5.44-3.57-6.96
		c-2.75-1.52-7.43-1.58-10.47-1.58h-6.73v17.73h2.34c3.68,0,9.01-0.35,9.01-5.21v-1.81h0.99v14.68h-0.99v-1.99
		c0-3.04-1.35-4.04-4.27-4.5c-1.58-0.23-3.22-0.29-4.86-0.29h-2.22v18.43h7.37c5.85,0,15.39-0.06,15.39-8.25V53.5h0.99v11.47H450.79
		z"/>
	<path d="M514.2,65.73c-2.28,0-4.56-0.47-6.67-1.29c-1.35-0.53-3.63-1.64-4.97-1.64c-1.29,0-1.46,1.58-1.52,2.58h-0.93V51.04h0.93
		c0.23,2.81,0.41,4.97,1.87,7.49c2.34,4.04,6.9,6.26,11.47,6.26c5.38,0,10-3.16,10-8.89c0-2.16-0.76-3.86-2.46-5.21
		c-4.91-3.8-14.51-1.81-18.78-6.14c-1.93-1.99-2.75-5.03-2.75-7.72c0-6.9,4.8-11.7,11.7-11.7c3.63,0,5.21,0.88,8.31,2.69
		c0.59,0.35,1.29,0.88,1.99,0.88c1.17,0,1.35-1.4,1.4-2.28h0.94v11.7h-0.94c-0.47-7.02-4.8-12.05-12.05-12.05
		c-4.97,0-8.95,2.92-8.95,8.13c0,13.1,24.16,1.4,24.16,18.95C526.95,60.75,521.74,65.73,514.2,65.73z"/>
	<path d="M538.82,64.96v-0.99h5.67V26.94h-5.67v-1h17.2v1h-5.67v37.03h5.67v0.99H538.82z M547.36,20.91c-1.52,0-2.81-1.29-2.81-2.81
		c0-1.58,1.23-2.81,2.81-2.81c1.52,0,2.81,1.29,2.81,2.81S548.88,20.91,547.36,20.91z"/>
</g>
</svg>
