<?xml version="1.0" encoding="UTF-8"?>
<svg width="487px" height="69px" viewBox="0 0 487 69" version="1.1" xmlns="http://www.w3.org/2000/svg" xmlns:xlink="http://www.w3.org/1999/xlink">
    <!-- Generator: Sketch 64 (93537) - https://sketch.com -->
    <title>Enstitusu_Horizontal_Black</title>
    <desc>Created with Sketch.</desc>
    <g id="Enstitusu_Horizontal_Black" stroke="none" stroke-width="1" fill="none" fill-rule="evenodd">
        <path d="M43.757,13.465 C41.464,16.795 39.349,19.891 37.704,23.601 C36.927,23.439 36.159,23.227 35.292,23.182 C33.172,23.043 31.387,23.462 30.571,23.673 C28.895,17.801 28.088,15.951 26.839,12.705 C25.493,9.227 22.411,4.224 20.933,1.802 C22.056,1.816 23.322,2.034 24.434,2.45 C25.984,3.031 27.3,3.744 28.792,4.454 C31.261,2.883 34.248,1.385 36.826,0.039 C37.463,2.223 37.756,4.542 37.944,6.822 C42.411,6.017 45.232,7.306 47.493,8.498 C46.255,10.069 44.989,11.678 43.757,13.465" id="Fill-1" fill="#1A1919"></path>
        <path d="M42.651,29.038 C42.428,28.137 42.064,27.367 41.598,26.5 C41.151,25.674 40.67,25.149 39.791,24.132 C41.467,21.556 43.045,18.869 45.169,16.622 C46.294,15.499 51.074,10.236 53.018,9.227 C54.027,10.873 54.027,12.555 54.471,14.27 C56.379,14.27 58.505,14.459 60.41,14.979 C60.075,16.359 59.22,18.231 58.43,19.684 C59.444,20.321 60.818,21.294 61.724,22.411 C62.821,23.78 63.707,24.847 64.699,25.959 C62.631,25.976 52.381,24.875 42.651,29.038" id="Fill-2" fill="#1A1919"></path>
        <path d="M65.389,41.235 C63.559,42.133 61.629,42.816 59.48,43.374 C60.43,46.532 61.313,49.784 61.52,53.297 C57.279,50.487 55.145,48.912 52.091,46.458 C49.213,44.145 44.124,39.648 42.78,37.636 C43.562,35.809 43.958,33.709 43.673,31.015 C52.281,29.193 59.617,28.976 68.021,30.206 C65.822,33.122 64.202,34.524 61.327,36.692 C62.308,37.524 64.936,40.564 65.389,41.235" id="Fill-3" fill="#1A1919"></path>
        <path d="M60.732,56.097 C56.404,56.706 52.825,55.55 51.484,55.332 C50.342,57.595 49.456,59.494 48.197,61.74 C46.453,60.818 44.961,59.892 43.539,58.986 C41.296,61.366 40.008,63.165 36.159,65.926 C36.064,58.208 36.578,51.135 35.223,42.983 C37.695,42.536 39.824,41.525 41.953,39.715 C45.09,43.414 47.964,46.314 51.7,49.504 C54.08,51.537 55.846,52.375 60.732,56.097" id="Fill-4" fill="#1A1919"></path>
        <path d="M33.354,53.816 C33.301,58.739 32.77,64.07 32.326,69 C30.773,67.34 29.333,65.355 27.99,63.444 C24.626,65.243 20.352,66.813 20.352,66.813 C20.173,64.031 20.299,61.108 20.522,58.416 C16.07,57.662 13.069,56.628 9.625,55.299 C11.443,54.348 15.404,52.107 19.249,48.929 C22.461,46.28 25.473,42.955 27.11,41.005 C29.462,42.308 30.563,42.794 33.066,43.206 C33.178,46.793 33.385,50.649 33.354,53.816" id="Fill-5" fill="#1A1919"></path>
        <path d="M23.489,36.183 C23.897,38.077 24.277,38.67 24.979,39.916 C21.735,43.934 16.078,48.174 10.376,51.621 C9.563,49.006 9.711,46.001 9.711,43.313 C6.479,43.089 2.931,41.391 0,40.28 C1.936,38.128 4.364,36.424 6.668,34.725 C4.833,32.016 2.791,29.294 1.808,25.629 C5.171,26.585 9.066,28.585 14.499,29.96 C17.229,30.642 20.319,30.932 23.009,31.161 C23.051,32.959 22.998,33.903 23.489,36.183" id="Fill-6" fill="#1A1919"></path>
        <path d="M25.579,26.299 C24.73,27.35 24.09,28.322 23.654,29.043 C12.382,27.479 7.647,25.411 1.771,22.075 C3.699,20.606 6.792,19.12 8.233,18.785 C7.781,16.561 7.706,14.409 7.706,12.281 C10.697,12.688 14.67,14.158 15.698,14.465 C16.198,10.873 17.279,7.25 18.944,4.152 C23.098,10.183 25.922,16.929 27.965,23.931 C27.496,24.338 26.278,25.428 25.579,26.299" id="Fill-7" fill="#1A1919"></path>
        <path d="M87.973,8.311 C87.302,8.311 86.732,7.744 86.732,7.071 C86.732,6.375 87.274,5.831 87.973,5.831 C88.646,5.831 89.216,6.4 89.216,7.071 C89.216,7.744 88.646,8.311 87.973,8.311 Z M84.201,27.775 L84.201,27.333 L86.707,27.333 L86.707,10.974 L84.201,10.974 L84.201,10.535 L91.8,10.535 L91.8,10.974 L89.292,10.974 L89.292,27.333 L91.8,27.333 L91.8,27.775 L84.201,27.775 L84.201,27.775 Z" id="Fill-8" fill="#1A1919"></path>
        <path d="M103.896,28.11 C102.888,28.11 101.88,27.902 100.95,27.545 C100.357,27.311 99.349,26.819 98.754,26.819 C98.184,26.819 98.105,27.518 98.08,27.953 L97.667,27.953 L97.667,21.623 L98.08,21.623 C98.184,22.863 98.262,23.818 98.907,24.931 C99.941,26.713 101.958,27.702 103.976,27.702 C106.352,27.702 108.395,26.299 108.395,23.768 C108.395,22.813 108.06,22.065 107.308,21.467 C105.137,19.791 100.896,20.668 99.014,18.756 C98.159,17.874 97.795,16.533 97.795,15.343 C97.795,12.292 99.915,10.174 102.964,10.174 C104.567,10.174 105.266,10.56 106.637,11.362 C106.895,11.515 107.205,11.75 107.515,11.75 C108.032,11.75 108.11,11.13 108.135,10.742 L108.548,10.742 L108.548,15.913 L108.135,15.913 C107.928,12.812 106.017,10.585 102.811,10.585 C100.611,10.585 98.857,11.879 98.857,14.18 C98.857,19.969 109.529,14.801 109.529,22.556 C109.529,25.914 107.23,28.11 103.896,28.11" id="Fill-9" fill="#1A1919"></path>
        <path d="M128.534,15.706 C128.534,13.996 128.664,11.907 126.646,11.337 C125.303,10.949 123.83,10.974 122.436,10.974 L122.436,27.333 L125.173,27.333 L125.173,27.775 L117.134,27.775 L117.134,27.333 L119.902,27.333 L119.902,10.974 L119.463,10.974 C117.988,10.974 115.482,10.949 114.446,12.242 C113.748,13.091 113.8,14.672 113.8,15.706 L113.362,15.706 L113.568,10.535 L128.769,10.535 L128.948,15.706 L128.534,15.706" id="Fill-10" fill="#1A1919"></path>
        <path d="M138.13,14.052 L135.443,21.702 L141,21.702 L138.13,14.052 Z M140.586,27.775 L140.586,27.333 L143.146,27.333 L141.181,22.143 L135.287,22.143 L134.097,25.423 C133.994,25.679 133.789,26.299 133.789,26.585 C133.789,27.545 135.75,27.333 136.32,27.333 L136.32,27.775 L130.893,27.775 L130.893,27.333 C132.909,27.333 132.884,27.333 133.608,25.373 L139.061,10.275 L139.396,10.275 L145.912,27.333 L148.082,27.333 L148.082,27.775 L140.586,27.775 L140.586,27.775 Z" id="Fill-11" fill="#1A1919"></path>
        <path d="M167.699,13.147 L167.699,27.902 L167.543,27.902 L154.826,11.75 L154.826,24.853 C154.826,27.489 155.058,27.333 157.513,27.333 L157.513,27.775 L151.904,27.775 L151.904,27.333 C153.532,27.333 154.41,27.618 154.41,25.679 L154.41,11.284 L153.945,10.974 L151.904,10.974 L151.904,10.535 L157.253,10.535 L167.308,23.254 L167.308,13.119 C167.308,10.664 167.076,10.974 164.67,10.974 L164.67,10.535 L170.205,10.535 L170.205,10.974 C167.799,10.974 167.699,10.767 167.699,13.147" id="Fill-12" fill="#1A1919"></path>
        <path d="M184.02,19.662 C183.581,19.377 183.086,19.17 182.572,19.036 C181.485,18.779 180.27,18.779 179.159,18.779 L179.159,27.333 L179.91,27.333 C181.849,27.333 183.891,27.439 185.025,25.607 C185.495,24.853 185.749,23.975 185.749,23.07 C185.749,21.545 185.338,20.489 184.02,19.662 Z M183.916,11.851 C182.441,10.87 180.865,10.974 179.159,10.974 L179.159,18.416 L179.65,18.416 C180.894,18.416 182.776,18.522 183.916,17.952 C185.053,17.382 185.545,16.22 185.545,15.008 C185.545,13.688 185.025,12.599 183.916,11.851 Z M186.528,26.792 C184.95,27.931 183.606,27.775 181.717,27.775 L174.169,27.775 L174.169,27.333 L176.653,27.333 L176.653,10.974 L174.169,10.974 L174.169,10.535 L181.564,10.535 C184.33,10.535 188.102,11.209 188.102,14.694 C188.102,16.198 187.249,17.438 185.933,18.08 C185.053,18.494 184.226,18.572 183.271,18.622 C184.148,18.756 185.025,18.907 185.855,19.243 C187.534,19.941 188.542,21.237 188.542,23.098 C188.542,24.673 187.766,25.886 186.528,26.792 L186.528,26.792 Z" id="Fill-13" fill="#1A1919"></path>
        <path d="M208.073,13.091 L208.073,21.908 C208.073,23.768 207.866,25.524 206.369,26.792 C205.05,27.931 203.265,28.137 201.586,28.137 C199.494,28.137 196.881,27.881 195.435,26.199 C194.479,25.087 194.583,23.768 194.583,22.4 L194.583,10.974 L192.102,10.974 L192.102,10.535 L199.829,10.535 L199.829,10.974 L197.141,10.974 L197.141,22.528 C197.141,24.154 197.036,25.524 198.435,26.585 C199.519,27.418 200.837,27.675 202.181,27.675 C204.145,27.675 206.033,27.076 207.039,25.266 C207.634,24.232 207.634,23.148 207.634,21.986 L207.634,13.091 C207.634,10.585 206.833,10.974 204.634,10.974 L204.634,10.535 L210.554,10.535 L210.554,10.974 C208.514,10.974 208.073,10.767 208.073,13.091" id="Fill-14" fill="#1A1919"></path>
        <path d="M214.429,27.775 L214.429,27.333 L216.909,27.333 L216.909,10.974 L214.429,10.974 L214.429,10.535 L222.313,10.535 L222.313,10.974 L219.443,10.974 L219.443,27.333 L222.028,27.333 C223.578,27.333 226.835,27.418 228.104,26.356 C229.059,25.551 229.238,24.338 229.238,23.177 L229.238,22.087 L229.676,22.087 L229.676,27.775 L214.429,27.775" id="Fill-15" fill="#1A1919"></path>
        <path d="M249.168,14.052 L246.481,21.702 L252.038,21.702 L249.168,14.052 Z M251.624,27.775 L251.624,27.333 L254.183,27.333 L252.218,22.143 L246.324,22.143 L245.134,25.423 C245.034,25.679 244.827,26.299 244.827,26.585 C244.827,27.545 246.791,27.333 247.357,27.333 L247.357,27.775 L241.933,27.775 L241.933,27.333 C243.946,27.333 243.921,27.333 244.646,25.373 L250.098,10.275 L250.433,10.275 L256.949,27.333 L259.123,27.333 L259.123,27.775 L251.624,27.775 L251.624,27.775 Z" id="Fill-16" fill="#1A1919"></path>
        <path d="M273.994,12.37 C272.856,10.845 270.685,10.974 268.979,10.974 L268.046,10.974 L268.046,18.601 L269.084,18.601 C270.712,18.601 272.935,18.472 274.021,17.047 C274.51,16.404 274.768,15.628 274.768,14.823 C274.768,13.996 274.484,13.041 273.994,12.37 Z M277.584,27.953 C275.184,27.953 274.484,26.792 274.252,24.545 L273.994,22.115 C273.839,20.746 273.425,19.762 272.033,19.321 C270.762,18.936 269.341,18.986 268.046,18.986 L268.046,27.333 L270.739,27.333 L270.739,27.775 L263.034,27.775 L263.034,27.333 L265.516,27.333 L265.516,10.974 L263.034,10.974 L263.034,10.535 L271.951,10.535 C273.736,10.535 275.622,10.792 276.709,12.37 C277.172,13.041 277.432,13.817 277.432,14.644 C277.432,16.013 276.733,17.204 275.542,17.874 C274.51,18.472 273.401,18.651 272.236,18.779 C273.632,18.963 275.158,19.221 276.062,20.411 C276.914,21.545 276.995,24.154 277.122,25.473 C277.199,26.299 277.33,27.468 278.416,27.468 C278.801,27.468 279.086,27.361 279.449,27.233 L279.626,27.618 C278.956,27.853 278.308,27.953 277.584,27.953 L277.584,27.953 Z" id="Fill-17" fill="#1A1919"></path>
        <path d="M290.739,14.052 L288.054,21.702 L293.606,21.702 L290.739,14.052 Z M293.197,27.775 L293.197,27.333 L295.754,27.333 L293.79,22.143 L287.896,22.143 L286.707,25.423 C286.602,25.679 286.398,26.299 286.398,26.585 C286.398,27.545 288.359,27.333 288.929,27.333 L288.929,27.775 L283.501,27.775 L283.501,27.333 C285.519,27.333 285.493,27.333 286.217,25.373 L291.667,10.275 L292.006,10.275 L298.52,27.333 L300.693,27.333 L300.693,27.775 L293.197,27.775 L293.197,27.775 Z" id="Fill-18" fill="#1A1919"></path>
        <path d="M310.719,33.384 C309.891,33.384 309.063,33.149 308.316,32.792 L308.473,32.428 C309.009,32.713 309.71,32.871 310.331,32.871 C311.105,32.871 311.806,32.373 311.806,31.552 C311.806,30.853 311.208,30.441 310.565,30.441 C310.15,30.441 309.968,30.568 309.607,30.747 L309.399,30.568 L310.82,28.087 C309.996,28.037 309.194,27.826 308.417,27.545 C307.823,27.311 306.814,26.819 306.22,26.819 C305.654,26.819 305.574,27.518 305.55,27.953 L305.134,27.953 L305.134,21.623 L305.55,21.623 C305.654,22.863 305.728,23.818 306.378,24.931 C307.411,26.713 309.425,27.702 311.444,27.702 C313.821,27.702 315.862,26.299 315.862,23.768 C315.862,22.813 315.527,22.065 314.776,21.467 C312.607,19.791 308.366,20.668 306.479,18.756 C305.624,17.874 305.265,16.533 305.265,15.343 C305.265,12.292 307.384,10.174 310.435,10.174 C312.037,10.174 312.731,10.56 314.105,11.362 C314.36,11.515 314.672,11.75 314.98,11.75 C315.5,11.75 315.581,11.13 315.604,10.742 L316.016,10.742 L316.016,15.913 L315.604,15.913 C315.396,12.812 313.485,10.585 310.281,10.585 C308.082,10.585 306.325,11.879 306.325,14.18 C306.325,19.969 316.999,14.801 316.999,22.556 C316.999,25.914 314.699,28.11 311.363,28.11 L311.29,28.11 L310.045,30.256 C310.539,30.077 310.951,29.971 311.47,29.971 C312.422,29.971 313.485,30.462 313.485,31.552 C313.485,32.893 311.806,33.384 310.719,33.384" id="Fill-19" fill="#1A1919"></path>
        <path d="M336,15.706 C336,13.996 336.13,11.907 334.113,11.337 C332.768,10.949 331.296,10.974 329.902,10.974 L329.902,27.333 L332.641,27.333 L332.641,27.775 L324.598,27.775 L324.598,27.333 L327.368,27.333 L327.368,10.974 L326.928,10.974 C325.454,10.974 322.949,10.949 321.914,12.242 C321.212,13.091 321.266,14.672 321.266,15.706 L320.827,15.706 L321.035,10.535 L336.231,10.535 L336.416,15.706 L336,15.706" id="Fill-20" fill="#1A1919"></path>
        <polyline id="Fill-21" fill="#1A1919" points="340.439 27.775 340.439 27.333 342.946 27.333 342.946 10.974 340.439 10.974 340.439 10.535 348.039 10.535 348.039 10.974 345.535 10.974 345.535 27.333 348.039 27.333 348.039 27.775 340.439 27.775"></polyline>
        <path d="M363.101,12.37 C361.96,10.845 359.789,10.974 358.085,10.974 L357.154,10.974 L357.154,18.601 L358.189,18.601 C359.815,18.601 362.038,18.472 363.127,17.047 C363.617,16.404 363.875,15.628 363.875,14.823 C363.875,13.996 363.59,13.041 363.101,12.37 Z M366.691,27.953 C364.291,27.953 363.59,26.792 363.356,24.545 L363.101,22.115 C362.943,20.746 362.531,19.762 361.136,19.321 C359.869,18.936 358.444,18.986 357.154,18.986 L357.154,27.333 L359.845,27.333 L359.845,27.775 L352.138,27.775 L352.138,27.333 L354.62,27.333 L354.62,10.974 L352.138,10.974 L352.138,10.535 L361.056,10.535 C362.842,10.535 364.73,10.792 365.816,12.37 C366.279,13.041 366.541,13.817 366.541,14.644 C366.541,16.013 365.839,17.204 364.65,17.874 C363.617,18.472 362.507,18.651 361.34,18.779 C362.736,18.963 364.26,19.221 365.166,20.411 C366.021,21.545 366.101,24.154 366.228,25.473 C366.306,26.299 366.436,27.468 367.519,27.468 C367.908,27.468 368.193,27.361 368.552,27.233 L368.736,27.618 C368.062,27.853 367.416,27.953 366.691,27.953 L366.691,27.953 Z" id="Fill-22" fill="#1A1919"></path>
        <path d="M386.105,27.775 L386.105,27.333 L388.589,27.333 L388.589,11.851 L382.179,27.439 L375.692,12.398 L375.692,24.573 C375.692,24.958 375.716,25.344 375.743,25.735 C375.82,27.283 376.208,27.333 377.684,27.333 L378.431,27.333 L378.431,27.775 L372.772,27.775 L372.772,27.333 C374.267,27.333 375.273,27.596 375.273,25.735 L375.273,11.438 L375.045,10.974 L372.873,10.974 L372.873,10.535 L377.684,10.535 L383.316,23.483 L388.589,10.535 L393.604,10.535 L393.604,10.974 L391.096,10.974 L391.096,27.333 L393.604,27.333 L393.604,27.775 L386.105,27.775" id="Fill-23" fill="#1A1919"></path>
        <path d="M404.673,14.052 L401.989,21.702 L407.541,21.702 L404.673,14.052 Z M407.127,27.775 L407.127,27.333 L409.689,27.333 L407.724,22.143 L401.831,22.143 L400.641,25.423 C400.537,25.679 400.333,26.299 400.333,26.585 C400.333,27.545 402.293,27.333 402.864,27.333 L402.864,27.775 L397.436,27.775 L397.436,27.333 C399.455,27.333 399.427,27.333 400.148,25.373 L405.602,10.275 L405.938,10.275 L412.452,27.333 L414.627,27.333 L414.627,27.775 L407.127,27.775 L407.127,27.775 Z" id="Fill-24" fill="#1A1919"></path>
        <path d="M418.54,27.775 L418.54,27.333 L421.024,27.333 L421.024,10.974 L418.54,10.974 L418.54,10.535 L426.424,10.535 L426.424,10.974 L423.554,10.974 L423.554,27.333 L426.139,27.333 C427.691,27.333 430.95,27.418 432.213,26.356 C433.172,25.551 433.354,24.338 433.354,23.177 L433.354,22.087 L433.79,22.087 L433.79,27.775 L418.54,27.775" id="Fill-25" fill="#1A1919"></path>
        <path d="M444.997,14.052 L442.308,21.702 L447.866,21.702 L444.997,14.052 Z M447.451,27.775 L447.451,27.333 L450.011,27.333 L448.047,22.143 L442.154,22.143 L440.963,25.423 C440.863,25.679 440.655,26.299 440.655,26.585 C440.655,27.545 442.62,27.333 443.186,27.333 L443.186,27.775 L437.762,27.775 L437.762,27.333 C439.773,27.333 439.75,27.333 440.474,25.373 L445.925,10.275 L446.26,10.275 L452.778,27.333 L454.947,27.333 L454.947,27.775 L447.451,27.775 L447.451,27.775 Z" id="Fill-26" fill="#1A1919"></path>
        <path d="M469.821,12.37 C468.684,10.845 466.512,10.974 464.806,10.974 L463.877,10.974 L463.877,18.601 L464.914,18.601 C466.542,18.601 468.761,18.472 469.848,17.047 C470.337,16.404 470.599,15.628 470.599,14.823 C470.599,13.996 470.314,13.041 469.821,12.37 Z M473.415,27.953 C471.011,27.953 470.314,26.792 470.08,24.545 L469.821,22.115 C469.667,20.746 469.254,19.762 467.857,19.321 C466.592,18.936 465.167,18.986 463.877,18.986 L463.877,27.333 L466.566,27.333 L466.566,27.775 L458.862,27.775 L458.862,27.333 L461.346,27.333 L461.346,10.974 L458.862,10.974 L458.862,10.535 L467.78,10.535 C469.563,10.535 471.451,10.792 472.537,12.37 C473,13.041 473.26,13.817 473.26,14.644 C473.26,16.013 472.56,17.204 471.37,17.874 C470.337,18.472 469.228,18.651 468.064,18.779 C469.458,18.963 470.984,19.221 471.889,20.411 C472.745,21.545 472.822,24.154 472.949,25.473 C473.026,26.299 473.157,27.468 474.243,27.468 C474.628,27.468 474.914,27.361 475.275,27.233 L475.457,27.618 C474.783,27.853 474.135,27.953 473.415,27.953 L473.415,27.953 Z" id="Fill-27" fill="#1A1919"></path>
        <polyline id="Fill-28" fill="#1A1919" points="478.946 27.775 478.946 27.333 481.454 27.333 481.454 10.974 478.946 10.974 478.946 10.535 486.546 10.535 486.546 10.974 484.039 10.974 484.039 27.333 486.546 27.333 486.546 27.775 478.946 27.775"></polyline>
        <path d="M84.249,58.79 L84.249,58.354 L86.732,58.354 L86.732,41.995 L84.249,41.995 L84.249,41.554 L98.44,41.554 L98.855,45.766 L98.44,45.766 C98.234,44.475 98.078,43.364 96.862,42.693 C95.65,42.016 93.583,41.995 92.236,41.995 L89.263,41.995 L89.263,49.822 L90.3,49.822 C91.929,49.822 94.281,49.672 94.281,47.521 L94.281,46.721 L94.719,46.721 L94.719,53.208 L94.281,53.208 L94.281,52.331 C94.281,50.983 93.686,50.548 92.393,50.342 C91.694,50.236 90.973,50.208 90.248,50.208 L89.263,50.208 L89.263,58.354 L92.521,58.354 C95.105,58.354 99.321,58.325 99.321,54.712 L99.321,53.728 L99.76,53.728 L99.76,58.79 L84.249,58.79" id="Fill-29" fill="#1A1919"></path>
        <path d="M119.734,44.162 L119.734,58.924 L119.578,58.924 L106.861,42.766 L106.861,55.873 C106.861,58.505 107.093,58.354 109.549,58.354 L109.549,58.79 L103.938,58.79 L103.938,58.354 C105.568,58.354 106.444,58.639 106.444,56.699 L106.444,42.301 L105.981,41.995 L103.938,41.995 L103.938,41.554 L109.289,41.554 L119.344,54.27 L119.344,44.135 C119.344,41.681 119.114,41.995 116.708,41.995 L116.708,41.554 L122.24,41.554 L122.24,41.995 C119.838,41.995 119.734,41.788 119.734,44.162" id="Fill-30" fill="#1A1919"></path>
        <path d="M132.574,59.13 C131.566,59.13 130.558,58.924 129.627,58.561 C129.035,58.325 128.026,57.835 127.431,57.835 C126.861,57.835 126.786,58.533 126.761,58.975 L126.344,58.975 L126.344,52.644 L126.761,52.644 C126.861,53.884 126.939,54.839 127.584,55.952 C128.618,57.734 130.635,58.718 132.653,58.718 C135.03,58.718 137.072,57.32 137.072,54.789 C137.072,53.833 136.737,53.079 135.988,52.487 C133.814,50.807 129.577,51.683 127.691,49.771 C126.836,48.896 126.476,47.548 126.476,46.358 C126.476,43.307 128.593,41.19 131.644,41.19 C133.245,41.19 133.943,41.575 135.314,42.38 C135.572,42.536 135.882,42.766 136.192,42.766 C136.711,42.766 136.787,42.146 136.812,41.76 L137.225,41.76 L137.225,46.928 L136.812,46.928 C136.605,43.827 134.694,41.604 131.488,41.604 C129.292,41.604 127.535,42.9 127.535,45.196 C127.535,50.983 138.209,45.821 138.209,53.572 C138.209,56.935 135.907,59.13 132.574,59.13" id="Fill-31" fill="#1A1919"></path>
        <path d="M157.211,46.721 C157.211,45.017 157.34,42.921 155.326,42.352 C153.982,41.966 152.51,41.995 151.113,41.995 L151.113,58.354 L153.853,58.354 L153.853,58.79 L145.813,58.79 L145.813,58.354 L148.579,58.354 L148.579,41.995 L148.141,41.995 C146.666,41.995 144.156,41.966 143.125,43.257 C142.427,44.111 142.478,45.687 142.478,46.721 L142.04,46.721 L142.246,41.554 L157.446,41.554 L157.625,46.721 L157.211,46.721" id="Fill-32" fill="#1A1919"></path>
        <path d="M164.76,39.329 C164.09,39.329 163.52,38.759 163.52,38.089 C163.52,37.39 164.061,36.849 164.76,36.849 C165.433,36.849 166,37.418 166,38.089 C166,38.759 165.433,39.329 164.76,39.329 Z M160.989,58.79 L160.989,58.354 L163.495,58.354 L163.495,41.995 L160.989,41.995 L160.989,41.554 L168.587,41.554 L168.587,41.995 L166.079,41.995 L166.079,58.354 L168.587,58.354 L168.587,58.79 L160.989,58.79 L160.989,58.79 Z" id="Fill-33" fill="#1A1919"></path>
        <path d="M188.515,46.721 C188.515,45.017 188.643,42.921 186.626,42.352 C185.282,41.966 183.81,41.995 182.416,41.995 L182.416,58.354 L185.154,58.354 L185.154,58.79 L177.116,58.79 L177.116,58.354 L179.882,58.354 L179.882,41.995 L179.444,41.995 C177.969,41.995 175.459,41.966 174.426,43.257 C173.73,44.111 173.781,45.687 173.781,46.721 L173.342,46.721 L173.548,41.554 L188.749,41.554 L188.928,46.721 L188.515,46.721" id="Fill-34" fill="#1A1919"></path>
        <path d="M205.109,39.329 C204.436,39.329 203.894,38.759 203.894,38.089 C203.894,37.418 204.436,36.849 205.109,36.849 C205.807,36.849 206.347,37.39 206.347,38.089 C206.347,38.759 205.782,39.329 205.109,39.329 Z M200.248,39.329 C199.578,39.329 199.007,38.759 199.007,38.089 C199.007,37.418 199.578,36.849 200.248,36.849 C200.946,36.849 201.491,37.39 201.491,38.089 C201.491,38.759 200.921,39.329 200.248,39.329 Z M208.83,44.111 L208.83,52.929 C208.83,54.789 208.623,56.544 207.123,57.812 C205.807,58.946 204.022,59.153 202.341,59.153 C200.248,59.153 197.639,58.896 196.191,57.214 C195.233,56.103 195.336,54.789 195.336,53.414 L195.336,41.995 L192.856,41.995 L192.856,41.554 L200.585,41.554 L200.585,41.995 L197.896,41.995 L197.896,53.549 C197.896,55.175 197.792,56.544 199.189,57.604 C200.273,58.433 201.591,58.689 202.936,58.689 C204.902,58.689 206.788,58.098 207.797,56.287 C208.392,55.253 208.392,54.169 208.392,53.002 L208.392,44.111 C208.392,41.604 207.59,41.995 205.391,41.995 L205.391,41.554 L211.311,41.554 L211.311,41.995 C209.269,41.995 208.83,41.788 208.83,44.111 L208.83,44.111 Z" id="Fill-35" fill="#1A1919"></path>
        <path d="M222.891,59.13 C221.882,59.13 220.874,58.924 219.943,58.561 C219.351,58.325 218.342,57.835 217.748,57.835 C217.178,57.835 217.102,58.533 217.077,58.975 L216.661,58.975 L216.661,52.644 L217.077,52.644 C217.178,53.884 217.255,54.839 217.901,55.952 C218.935,57.734 220.952,58.718 222.969,58.718 C225.347,58.718 227.388,57.32 227.388,54.789 C227.388,53.833 227.053,53.079 226.304,52.487 C224.131,50.807 219.893,51.683 218.007,49.771 C217.152,48.896 216.792,47.548 216.792,46.358 C216.792,43.307 218.91,41.19 221.96,41.19 C223.562,41.19 224.259,41.575 225.631,42.38 C225.888,42.536 226.198,42.766 226.508,42.766 C227.028,42.766 227.103,42.146 227.128,41.76 L227.542,41.76 L227.542,46.928 L227.128,46.928 C226.922,43.827 225.011,41.604 221.806,41.604 C219.608,41.604 217.851,42.9 217.851,45.196 C217.851,50.983 228.525,45.821 228.525,53.572 C228.525,56.935 226.223,59.13 222.891,59.13" id="Fill-36" fill="#1A1919"></path>
        <path d="M245.302,39.329 C244.628,39.329 244.086,38.759 244.086,38.089 C244.086,37.418 244.628,36.849 245.302,36.849 C246,36.849 246.54,37.39 246.54,38.089 C246.54,38.759 245.972,39.329 245.302,39.329 Z M240.441,39.329 C239.77,39.329 239.2,38.759 239.2,38.089 C239.2,37.418 239.77,36.849 240.441,36.849 C241.139,36.849 241.681,37.39 241.681,38.089 C241.681,38.759 241.114,39.329 240.441,39.329 Z M249.023,44.111 L249.023,52.929 C249.023,54.789 248.816,56.544 247.315,57.812 C246,58.946 244.215,59.153 242.533,59.153 C240.441,59.153 237.832,58.896 236.384,57.214 C235.426,56.103 235.529,54.789 235.529,53.414 L235.529,41.995 L233.049,41.995 L233.049,41.554 L240.776,41.554 L240.776,41.995 L238.088,41.995 L238.088,53.549 C238.088,55.175 237.985,56.544 239.382,57.604 C240.466,58.433 241.784,58.689 243.128,58.689 C245.095,58.689 246.98,58.098 247.989,56.287 C248.584,55.253 248.584,54.169 248.584,53.002 L248.584,44.111 C248.584,41.604 247.782,41.995 245.584,41.995 L245.584,41.554 L251.503,41.554 L251.503,41.995 C249.46,41.995 249.023,41.788 249.023,44.111 L249.023,44.111 Z" id="Fill-37" fill="#1A1919"></path>
    </g>
</svg>